G04 ================== begin FILE IDENTIFICATION RECORD ==================*
G04 Layout Name:  D:/Documents/orcad/pcad/allegro/DUBLA1 P4.brd*
G04 Film Name:    SOLDERMASK_TOP*
G04 File Format:  Gerber RS274X*
G04 File Origin:  Cadence Allegro 17.2-S025*
G04 Origin Date:  Thu Jan 16 16:47:51 2025*
G04 *
G04 Layer:  BOARD GEOMETRY/DESIGN_OUTLINE*
G04 Layer:  VIA CLASS/SOLDERMASK_TOP*
G04 Layer:  PIN/SOLDERMASK_TOP*
G04 Layer:  PACKAGE GEOMETRY/SOLDERMASK_TOP*
G04 Layer:  BOARD GEOMETRY/SOLDERMASK_TOP*
G04 *
G04 Offset:    (0.00 0.00)*
G04 Mirror:    No*
G04 Mode:      Positive*
G04 Rotation:  0*
G04 FullContactRelief:  No*
G04 UndefLineWidth:     10.00*
G04 ================== end FILE IDENTIFICATION RECORD ====================*
%FSLAX25Y25*MOIN*%
%IR0*IPPOS*OFA0.00000B0.00000*MIA0B0*SFA1.00000B1.00000*%
%ADD13R,.076X.12*%
%ADD17C,.052*%
%ADD14C,.044*%
%ADD12C,.08*%
%ADD11C,.075*%
%ADD16R,.052X.052*%
%ADD15R,.075X.075*%
%ADD10C,.145*%
%ADD18C,.01*%
G75*
%LPD*%
G75*
G54D10*
X14100Y14100D03*
Y245900D03*
X245900Y14100D03*
Y245900D03*
G54D11*
X30000Y60000D03*
Y50000D03*
X40000Y210000D03*
Y200000D03*
X50000Y240000D03*
Y230000D03*
X70000Y210000D03*
Y200000D03*
X110000Y90000D03*
Y100000D03*
Y110000D03*
Y120000D03*
Y130000D03*
Y140000D03*
Y150000D03*
Y160000D03*
Y210000D03*
Y200000D03*
X90000Y240000D03*
Y230000D03*
X140000Y90000D03*
Y100000D03*
Y110000D03*
Y120000D03*
Y130000D03*
Y140000D03*
Y150000D03*
Y160000D03*
Y170000D03*
X130000Y240000D03*
Y230000D03*
X150000Y210000D03*
Y200000D03*
X170000Y240000D03*
Y230000D03*
X190000Y210000D03*
Y200000D03*
X230000Y130000D03*
X220000D03*
X230000Y210000D03*
X220000D03*
X210000Y240000D03*
Y230000D03*
G54D12*
X50000Y60000D03*
Y50000D03*
X170000Y20000D03*
Y60000D03*
G54D13*
X70000Y50000D03*
X93600D03*
G54D14*
X65000Y142500D03*
Y157500D03*
X72500Y235000D03*
Y225000D03*
X82500Y80000D03*
X105000Y75000D03*
X95000D03*
X82500Y105000D03*
X97500Y100000D03*
X92500Y170000D03*
X102500D03*
X95000Y187500D03*
X120000Y180000D03*
X117500Y195000D03*
X140000Y205000D03*
Y195000D03*
X132500Y210000D03*
X117500Y235000D03*
X160000Y65000D03*
X157500Y75000D03*
X167500Y110000D03*
X152500Y140000D03*
X157500Y130000D03*
X155000Y175000D03*
X147500Y185000D03*
X165000Y205000D03*
Y195000D03*
X172500Y205000D03*
Y195000D03*
X195000Y235000D03*
Y225000D03*
X205000Y205000D03*
Y195000D03*
X235000Y122500D03*
G54D15*
X110000Y170000D03*
G54D16*
X120000Y50000D03*
X200000D03*
G54D17*
X130000D03*
X140000D03*
X210000D03*
X220000D03*
G54D18*
G01X0Y0D02*
Y260000D01*
X260000D01*
Y0D01*
X0D01*
M02*
