G04 ================== begin FILE IDENTIFICATION RECORD ==================*
G04 Layout Name:  D:/Documents/orcad/pcad/allegro/DUBLA1 P4.brd*
G04 Film Name:    BOTTOM*
G04 File Format:  Gerber RS274X*
G04 File Origin:  Cadence Allegro 17.2-S025*
G04 Origin Date:  Thu Jan 16 16:47:51 2025*
G04 *
G04 Layer:  BOARD GEOMETRY/DESIGN_OUTLINE*
G04 Layer:  ETCH/BOTTOM*
G04 Layer:  PIN/BOTTOM*
G04 Layer:  VIA CLASS/BOTTOM*
G04 *
G04 Offset:    (0.00 0.00)*
G04 Mirror:    No*
G04 Mode:      Positive*
G04 Rotation:  0*
G04 FullContactRelief:  No*
G04 UndefLineWidth:     0.00*
G04 ================== end FILE IDENTIFICATION RECORD ====================*
%FSLAX25Y25*MOIN*%
%IR0*IPPOS*OFA0.00000B0.00000*MIA0B0*SFA1.00000B1.00000*%
%ADD13C,.024*%
%ADD11C,.06*%
%ADD16C,.052*%
%ADD10C,.025*%
%ADD12C,.065*%
%ADD14R,.06X.06*%
%ADD15R,.052X.052*%
%ADD17C,.02*%
%ADD18C,.036*%
%ADD22C,.07004*%
%ADD24C,.06204*%
%ADD19C,.09204*%
%ADD23C,.08404*%
%ADD20C,.07504*%
%ADD21C,.09704*%
G75*
%LPD*%
G75*
G36*
G01X24102Y10001D02*
Y24102D01*
X10001D01*
Y235898D01*
X24102D01*
Y249999D01*
X235898D01*
Y235898D01*
X249999D01*
Y24102D01*
X235898D01*
Y10001D01*
X24102D01*
G37*
%LPC*%
G75*
G36*
G01X236103Y119924D02*
X223578Y107398D01*
X168541D01*
G02Y112602I-1041J2602D01*
G01X221422D01*
X232424Y123604D01*
G02X236137Y119939I2576J-1104D01*
G01X236103Y119924D01*
G37*
G36*
G01X139098Y84857D02*
G03X138910Y85529I-282J283D01*
G02X144471Y91090I1090J4471D01*
G03X145143Y90902I389J94D01*
G01X154898Y100658D01*
Y128959D01*
G02X160102I2602J1041D01*
G01Y98502D01*
X138998Y77398D01*
X107502D01*
G03X107189Y76749I0J-400D01*
G02X103959Y72398I-2189J-1749D01*
G01X96041D01*
G02X92811Y76749I-1041J2602D01*
G03X92498Y77398I-313J249D01*
G01X83541D01*
G02Y82602I-1041J2602D01*
G01X136842D01*
X139098Y84857D01*
G37*
G36*
G01X88578Y102602D02*
X96459D01*
G02Y97398I1041J-2602D01*
G01X86422D01*
X81397Y102424D01*
X81363Y102439D01*
G02X85076Y106104I1137J2561D01*
G01X88578Y102602D01*
G37*
G36*
G01X67602Y156459D02*
Y143540D01*
G02X62398I-2602J-1040D01*
G01Y156459D01*
G02X67602I2602J1041D01*
G37*
G36*
G01X197602Y233959D02*
Y226040D01*
G02X192398I-2602J-1040D01*
G01Y233959D01*
G02X197602I2602J1041D01*
G37*
G36*
G01X167602Y203959D02*
Y196040D01*
G02X162398I-2602J-1040D01*
G01Y203959D01*
G02X167602I2602J1041D01*
G37*
G36*
G01X75102Y233959D02*
Y226040D01*
G02X69898I-2602J-1040D01*
G01Y233959D01*
G02X75102I2602J1041D01*
G37*
G36*
G01X196898Y47400D02*
Y52600D01*
G02X197400Y53102I502J0D01*
G01X202600D01*
G02X203102Y52600I0J-502D01*
G01Y47400D01*
G02X202600Y46898I-502J0D01*
G01X197400D01*
G02X196898Y47400I0J502D01*
G37*
G36*
G01X115798D02*
Y52600D01*
G02X117400Y54202I1602J0D01*
G01X122600D01*
G02X124202Y52600I0J-1602D01*
G01Y47400D01*
G02X122600Y45798I-1602J0D01*
G01X117400D01*
G02X115798Y47400I0J1602D01*
G37*
G36*
G01X101460Y172602D02*
G02X105001Y171264I1040J-2602D01*
G03X105398Y171664I-3J400D01*
G01Y173000D01*
G02X107000Y174602I1602J0D01*
G01X113000D01*
G02X114602Y173000I0J-1602D01*
G01Y167000D01*
G02X113000Y165398I-1602J0D01*
G01X107000D01*
G02X105398Y167000I0J1602D01*
G01Y168336D01*
G03X105001Y168736I-400J0D01*
G02X101460Y167398I-2501J1264D01*
G01X93541D01*
G02Y172602I-1041J2602D01*
G01X101460D01*
G37*
G36*
G01X142602Y203959D02*
Y196040D01*
G02X137398I-2602J-1040D01*
G01Y203959D01*
G02X142602I2602J1041D01*
G37*
G36*
G01X207602D02*
Y196040D01*
G02X202398I-2602J-1040D01*
G01Y203959D01*
G02X207602I2602J1041D01*
G37*
G36*
G01X139178Y212998D02*
X135076Y208897D01*
X135061Y208863D01*
G02X131363Y212561I-2561J1137D01*
G01X131397Y212576D01*
X137022Y218202D01*
X168353D01*
X178902Y207653D01*
Y162722D01*
X155076Y138897D01*
X155061Y138863D01*
G02X151396Y142576I-2561J1137D01*
G01X173698Y164878D01*
Y191899D01*
G03X173199Y192286I-400J0D01*
G02X169898Y196040I-699J2714D01*
G01Y203959D01*
G02X171076Y207414I2602J1041D01*
G03X171155Y208041I-204J344D01*
G01X166197Y212998D01*
X154274D01*
G03X153932Y212391I0J-400D01*
G02X146068I-3932J-2391D01*
G03X145726Y212998I-342J207D01*
G01X139178D01*
G37*
G36*
G01X120102Y196041D02*
G02X114898I-2602J-1041D01*
G01Y197813D01*
G03X114139Y197988I-400J0D01*
G02Y202012I-4139J2012D01*
G03X114898Y202187I359J175D01*
G01Y207813D01*
G03X114139Y207988I-400J0D01*
G02Y212012I-4139J2012D01*
G03X114898Y212187I359J175D01*
G01Y233959D01*
G02X120102I2602J1041D01*
G01Y196041D01*
G37*
G36*
G01X162602Y73578D02*
Y66041D01*
G02X157398I-2602J-1041D01*
G01Y71422D01*
X156397Y72424D01*
X156363Y72439D01*
G02X160076Y76104I1137J2561D01*
G01X162602Y73578D01*
G37*
G36*
G01X146078Y190102D02*
X148603Y187576D01*
X148637Y187561D01*
G02X149689Y183251I-1137J-2561D01*
G03X150002Y182602I313J-249D01*
G01X151078D01*
X156103Y177576D01*
X156137Y177561D01*
G02X152439Y173863I-1137J-2561D01*
G01X152424Y173897D01*
X148922Y177398D01*
X121041D01*
G02Y182602I-1041J2602D01*
G01X144998D01*
G03X145311Y183251I0J400D01*
G02X144939Y183863I2189J1749D01*
G01X144924Y183897D01*
X143922Y184898D01*
X96041D01*
G02Y190102I-1041J2602D01*
G01X146078D01*
G37*
G54D22*
X30000Y60000D03*
X110000Y160000D03*
X230000Y210000D03*
G54D24*
X140000Y50000D03*
G54D19*
X230000Y130000D03*
X30000Y50000D03*
X40000Y210000D03*
Y200000D03*
X50000Y230000D03*
Y240000D03*
X70000Y210000D03*
Y200000D03*
X110000Y90000D03*
Y100000D03*
Y110000D03*
Y120000D03*
Y130000D03*
Y140000D03*
Y150000D03*
X90000Y240000D03*
Y230000D03*
X140000Y100000D03*
Y110000D03*
Y120000D03*
Y130000D03*
Y140000D03*
Y150000D03*
Y160000D03*
Y170000D03*
X130000Y240000D03*
Y230000D03*
X150000Y200000D03*
X170000Y240000D03*
X220000Y130000D03*
Y210000D03*
X210000Y240000D03*
Y230000D03*
X170000D03*
X190000Y210000D03*
Y200000D03*
G54D23*
X130000Y50000D03*
X210000D03*
X220000D03*
G54D20*
X50000Y60000D03*
G54D21*
Y50000D03*
X170000Y20000D03*
Y60000D03*
%LPD*%
G75*
G54D10*
X14100Y14100D03*
Y245900D03*
X245900Y14100D03*
Y245900D03*
G54D11*
X30000Y60000D03*
Y50000D03*
X40000Y210000D03*
Y200000D03*
X50000Y240000D03*
Y230000D03*
X70000Y210000D03*
Y200000D03*
X110000Y90000D03*
Y100000D03*
Y110000D03*
Y120000D03*
Y130000D03*
Y140000D03*
Y150000D03*
Y160000D03*
Y210000D03*
Y200000D03*
X90000Y240000D03*
Y230000D03*
X140000Y90000D03*
Y100000D03*
Y110000D03*
Y120000D03*
Y130000D03*
Y140000D03*
Y150000D03*
Y160000D03*
Y170000D03*
X130000Y240000D03*
Y230000D03*
X150000Y210000D03*
Y200000D03*
X170000Y240000D03*
Y230000D03*
X190000Y210000D03*
Y200000D03*
X230000Y130000D03*
X220000D03*
X230000Y210000D03*
X220000D03*
X210000Y240000D03*
Y230000D03*
G54D12*
X50000Y60000D03*
Y50000D03*
X170000Y20000D03*
Y60000D03*
G54D13*
X65000Y142500D03*
Y157500D03*
X72500Y235000D03*
Y225000D03*
X82500Y80000D03*
X105000Y75000D03*
X95000D03*
X82500Y105000D03*
X97500Y100000D03*
X92500Y170000D03*
X102500D03*
X95000Y187500D03*
X120000Y180000D03*
X117500Y195000D03*
X140000Y205000D03*
Y195000D03*
X132500Y210000D03*
X117500Y235000D03*
X160000Y65000D03*
X157500Y75000D03*
X167500Y110000D03*
X152500Y140000D03*
X157500Y130000D03*
X155000Y175000D03*
X147500Y185000D03*
X165000Y205000D03*
Y195000D03*
X172500Y205000D03*
Y195000D03*
X195000Y235000D03*
Y225000D03*
X205000Y205000D03*
Y195000D03*
X235000Y122500D03*
G54D14*
X110000Y170000D03*
G54D15*
X120000Y50000D03*
X200000D03*
G54D16*
X130000D03*
X140000D03*
X210000D03*
X220000D03*
G54D17*
G01X65000Y157500D02*
Y142500D01*
G01X72500Y235000D02*
Y225000D01*
G01X82500Y80000D02*
X137920D01*
X157500Y99580D01*
Y130000D01*
G01X105000Y75000D02*
X95000D01*
G01X82500Y105000D02*
X87500Y100000D01*
X97500D01*
G01X92500Y170000D02*
X102500D01*
G01X95000Y187500D02*
X145000D01*
X147500Y185000D01*
G01X120000Y180000D02*
X150000D01*
X155000Y175000D01*
G01X117500Y235000D02*
Y195000D01*
G01X140000Y205000D02*
Y195000D01*
G01X152500Y140000D02*
X176300Y163800D01*
Y206575D01*
X167275Y215600D01*
X138100D01*
X132500Y210000D01*
G01X160000Y65000D02*
Y72500D01*
X157500Y75000D01*
G01X235000Y122500D02*
X222500Y110000D01*
X167500D01*
G01X165000Y205000D02*
Y195000D01*
G01X172500Y205000D02*
Y195000D01*
G01X195000Y235000D02*
Y225000D01*
G01X205000Y205000D02*
Y195000D01*
G54D18*
G01X30000Y60000D02*
Y63702D01*
G01X26298Y60000D02*
X30000D01*
G01D02*
X33702D01*
G01X50000D02*
Y63952D01*
G01X46048Y60000D02*
X50000D01*
G01D02*
X53952D01*
G01X106298Y160000D02*
X110000D01*
G01D02*
X113702D01*
G01X140000Y46698D02*
Y50000D01*
G01D02*
Y53302D01*
G01X136698Y50000D02*
X140000D01*
G01D02*
X143302D01*
G01X200000Y46698D02*
Y50000D01*
G01D02*
Y53302D01*
G01X196698Y50000D02*
X200000D01*
G01D02*
X203302D01*
G01X230000Y206298D02*
Y210000D01*
G01D02*
Y213702D01*
G01Y210000D02*
X233702D01*
M02*
